<svg xmlns="http://www.w3.org/2000/svg" viewBox="0 0 900 800" role="img" aria-labelledby="title desc"><title id="title">DeliverBooks</title><desc id="desc">DeliverBooks logo with an open book, red arch, and Read To Reach tagline.</desc><g fill="none" stroke-linecap="round" stroke-linejoin="round"><path d="M155 445V310c0-135 132-245 295-245s295 110 295 245v135" stroke="#e30919" stroke-width="34"/><path d="M215 445V320" stroke="#52191f" stroke-width="15"/><path d="M685 445V320" stroke="#52191f" stroke-width="15"/><path d="M225 315c66-1 128 19 225 83 97-64 159-84 225-83v168c-82-7-151-24-225-70-74 46-143 63-225 70Z" fill="#52191f" stroke="#52191f" stroke-width="8"/><path d="M450 398v88" stroke="#fff" stroke-width="10"/><path d="M225 483c80-5 150-24 225-69 75 45 145 64 225 69" stroke="#fff" stroke-width="11"/></g><circle cx="450" cy="158" r="53" fill="#52191f"/><text x="450" y="625" text-anchor="middle" fill="#52191f" font-family="Arial, Helvetica, sans-serif" font-size="88" font-weight="800" letter-spacing="-4">DeliverBooks</text><text x="450" y="704" text-anchor="middle" fill="#52191f" font-family="Arial, Helvetica, sans-serif" font-size="50" font-weight="400">Read To Reach</text></svg>